<svg width="21" height="20" viewBox="0 0 21 20" fill="none" xmlns="http://www.w3.org/2000/svg">
<path d="M10.4922 1.66577C10.0322 1.66577 9.65886 2.03886 9.65886 2.49911V11.3008L7.15886 8.82745L5.98719 9.99911L9.89304 13.9316C10.2189 14.2566 10.7655 14.2566 11.0914 13.9316L14.9972 9.99911L13.8255 8.82745L11.3255 11.3008V2.49911C11.3255 2.03886 10.9522 1.66569 10.4922 1.66577ZM3.82552 11.6658C3.36552 11.6658 2.99219 12.0391 2.99219 12.4991V14.1658C2.99219 16.0066 4.48469 17.4991 6.32553 17.4991H14.6589C16.4997 17.4991 17.9922 16.0066 17.9922 14.1658V12.4991C17.9922 12.0391 17.6189 11.6658 17.1589 11.6658C16.6989 11.6658 16.3255 12.0391 16.3255 12.4991V14.1658C16.3255 15.0866 15.5797 15.8325 14.6589 15.8325H6.32553C5.40469 15.8325 4.65886 15.0866 4.65886 14.1658V12.4991C4.65886 12.0391 4.28552 11.6658 3.82552 11.6658Z" fill="#F8F7F3"/>
</svg>
