<svg width="20" height="21" viewBox="0 0 20 21" fill="none" xmlns="http://www.w3.org/2000/svg">
<path d="M9.9922 2.16577C9.5322 2.16577 9.15886 2.53886 9.15886 2.99911V11.8008L6.65886 9.32745L5.48719 10.4991L9.39304 14.4316C9.71887 14.7566 10.2655 14.7566 10.5914 14.4316L14.4972 10.4991L13.3255 9.32745L10.8255 11.8008V2.99911C10.8255 2.53886 10.4522 2.16569 9.9922 2.16577ZM3.32552 12.1658C2.86552 12.1658 2.49219 12.5391 2.49219 12.9991V14.6658C2.49219 16.5066 3.98469 17.9991 5.82553 17.9991H14.1589C15.9997 17.9991 17.4922 16.5066 17.4922 14.6658V12.9991C17.4922 12.5391 17.1189 12.1658 16.6589 12.1658C16.1989 12.1658 15.8255 12.5391 15.8255 12.9991V14.6658C15.8255 15.5866 15.0797 16.3325 14.1589 16.3325H5.82553C4.90469 16.3325 4.15886 15.5866 4.15886 14.6658V12.9991C4.15886 12.5391 3.78552 12.1658 3.32552 12.1658Z" fill="#260000"/>
</svg>
