<svg width="24" height="24" viewBox="0 0 24 24" fill="none" xmlns="http://www.w3.org/2000/svg">
<path d="M12.5 22C12.4017 22 12.3033 21.965 12.2242 21.8958C11.9292 21.635 5 15.4533 5 9.5C5 5.36417 8.365 2 12.5 2C16.635 2 20 5.36417 20 9.5C20 15.4533 13.0708 21.635 12.7758 21.8958C12.6967 21.965 12.5983 22 12.5 22ZM12.5 2.83333C8.82417 2.83333 5.83333 5.82417 5.83333 9.5C5.83333 14.4317 11.2092 19.7983 12.5 21.0158C13.7908 19.7983 19.1667 14.4317 19.1667 9.5C19.1667 5.82417 16.1758 2.83333 12.5 2.83333Z" fill="#FEFEFE"/>
<path d="M12.5007 13.6667C10.2032 13.6667 8.33398 11.7975 8.33398 9.50004C8.33398 7.20254 10.2032 5.33337 12.5007 5.33337C14.7982 5.33337 16.6673 7.20254 16.6673 9.50004C16.6673 11.7975 14.7982 13.6667 12.5007 13.6667ZM12.5007 6.16671C10.6623 6.16671 9.16732 7.66171 9.16732 9.50004C9.16732 11.3384 10.6623 12.8334 12.5007 12.8334C14.339 12.8334 15.834 11.3384 15.834 9.50004C15.834 7.66171 14.339 6.16671 12.5007 6.16671Z" fill="#FEFEFE"/>
</svg>
