<svg width="184" height="60" viewBox="0 0 184 60" fill="none" xmlns="http://www.w3.org/2000/svg">
<g clip-path="url(#clip0_1_57542)">
<path d="M8.56142 39.924C6.20223 37.3743 5.02368 34.2514 5.02368 30.5531C5.02368 26.8507 6.20223 23.7154 8.56142 21.1491C10.9185 18.5829 13.9139 17.2998 17.5476 17.2998C20.8851 17.2998 23.6344 18.3387 25.7996 20.4124V18.0283H34.4854V43.02H25.8914V40.1972H25.7996C23.6344 42.5647 20.8851 43.7485 17.5476 43.7485C13.9139 43.7485 10.9185 42.4736 8.56142 39.924ZM15.954 26.3147C14.8234 27.4198 14.2602 28.8313 14.2602 30.5531C14.2602 32.2708 14.7984 33.674 15.8789 34.7667C16.9573 35.8553 18.382 36.3975 20.1509 36.3975C21.853 36.3975 23.2506 35.847 24.3478 34.7419C25.4429 33.6326 25.9915 32.2336 25.9915 30.5448C25.9915 28.8292 25.4262 27.4198 24.2977 26.3147C23.1671 25.2054 21.7862 24.6508 20.1509 24.6508C18.4821 24.6508 17.0825 25.2054 15.954 26.3147Z" fill="#FEFEFE"/>
<path d="M35.761 43.02V18.0283H44.4552V21.6293H44.5553C44.6158 21.503 44.718 21.3437 44.864 21.1491C45.0142 20.9505 45.3333 20.609 45.8235 20.1227C46.3179 19.6384 46.8435 19.2017 47.4005 18.8147C47.9553 18.4236 48.6771 18.0738 49.5615 17.7634C50.446 17.455 51.3429 17.2998 52.2565 17.2998C53.2077 17.2998 54.1422 17.4302 55.06 17.6889C55.9778 17.9496 56.6474 18.2083 57.0709 18.467L57.7634 18.8561L54.1255 26.1657C53.045 25.2551 51.5411 24.7998 49.6116 24.7998C48.5603 24.7998 47.6591 25.0295 46.9082 25.4869C46.1573 25.9401 45.6254 26.4927 45.3146 27.1425C45.0017 27.7882 44.7806 28.3408 44.6471 28.7982C44.5177 29.2514 44.4552 29.6073 44.4552 29.866V43.02H35.761Z" fill="#FEFEFE"/>
<path d="M57.3156 39.9237C54.9564 37.374 53.7778 34.2511 53.7778 30.5528C53.7778 26.8504 54.9564 23.7151 57.3156 21.1489C59.6727 18.5826 62.6681 17.2995 66.3018 17.2995C69.6393 17.2995 72.3885 18.3384 74.5537 20.4121V1.12402H83.2395V43.0197H74.6455V40.1969H74.5537C72.3885 42.5644 69.6393 43.7482 66.3018 43.7482C62.6681 43.7482 59.6727 42.4734 57.3156 39.9237ZM64.7081 26.3144C63.5775 27.4196 63.0143 28.831 63.0143 30.5528C63.0143 32.2705 63.5525 33.6737 64.633 34.7664C65.7115 35.855 67.1361 36.3972 68.905 36.3972C70.6071 36.3972 72.0047 35.8467 73.1019 34.7416C74.197 33.6323 74.7456 32.2333 74.7456 30.5446C74.7456 28.8289 74.1803 27.4196 73.0518 26.3144C71.9213 25.2051 70.5404 24.6505 68.905 24.6505C67.2363 24.6505 65.8366 25.2051 64.7081 26.3144Z" fill="#FEFEFE"/>
<path d="M86.2333 39.924C83.8741 37.3743 82.6956 34.2514 82.6956 30.5531C82.6956 26.8507 83.8741 23.7154 86.2333 21.1491C88.5904 18.5829 91.5858 17.2998 95.2195 17.2998C98.557 17.2998 101.306 18.3387 103.471 20.4124V18.0283H112.157V43.02H103.563V40.1972H103.471C101.306 42.5647 98.557 43.7485 95.2195 43.7485C91.5858 43.7485 88.5904 42.4736 86.2333 39.924ZM93.6258 26.3147C92.4953 27.4198 91.9321 28.8313 91.9321 30.5531C91.9321 32.2708 92.4702 33.674 93.5507 34.7667C94.6292 35.8553 96.0539 36.3975 97.8227 36.3975C99.5249 36.3975 100.922 35.847 102.02 34.7419C103.115 33.6326 103.663 32.2336 103.663 30.5448C103.663 28.8292 103.098 27.4198 101.97 26.3147C100.839 25.2054 99.4581 24.6508 97.8227 24.6508C96.154 24.6508 94.7543 25.2054 93.6258 26.3147Z" fill="#FEFEFE"/>
<path d="M113.433 43.02V18.0283H122.127V20.6607H122.227C124.484 18.4215 126.892 17.2998 129.445 17.2998C130.684 17.2998 131.919 17.4633 133.149 17.7882C134.378 18.109 135.557 18.6119 136.687 19.2948C137.816 19.9799 138.731 20.9484 139.432 22.2005C140.137 23.4484 140.492 24.8991 140.492 26.5548V43.02H131.798V28.8892C131.798 27.5937 131.38 26.4596 130.546 25.4869C129.712 24.5101 128.623 24.0217 127.284 24.0217C125.97 24.0217 124.783 24.5266 123.721 25.5366C122.657 26.5424 122.127 27.6599 122.127 28.8892V43.02H113.433Z" fill="#FEFEFE"/>
<path d="M140.144 49.1624L147.261 45.7021C148.567 47.842 150.842 48.914 154.086 48.914C155.592 48.914 156.992 48.4339 158.283 47.4736C159.578 46.5175 160.227 45.0502 160.227 43.0697V41.2154C158.686 42.9041 155.934 43.7485 151.975 43.7485C148.341 43.7485 145.346 42.4736 142.989 39.924C140.63 37.3743 139.451 34.2514 139.451 30.5531C139.451 26.8507 140.63 23.7154 142.989 21.1491C145.346 18.5829 148.341 17.2998 151.975 17.2998C155.217 17.2998 157.918 18.2911 160.077 20.2717H160.227V18.0283H168.913V43.6988C168.913 47.7592 167.553 50.8946 164.833 53.1028C162.117 55.3089 158.535 56.414 154.086 56.414C146.881 56.414 142.234 53.9968 140.144 49.1624ZM150.381 26.3147C149.251 27.4198 148.688 28.8313 148.688 30.5531C148.688 32.2708 149.226 33.674 150.306 34.7667C151.385 35.8553 152.809 36.3975 154.578 36.3975C156.28 36.3975 157.678 35.847 158.775 34.7419C159.87 33.6326 160.419 32.2336 160.419 30.5448C160.419 28.8292 159.854 27.4198 158.725 26.3147C157.595 25.2054 156.214 24.6508 154.578 24.6508C152.91 24.6508 151.51 25.2054 150.381 26.3147Z" fill="#FEFEFE"/>
<path d="M175.787 32.5977C177.356 32.5977 178.687 33.1419 179.784 34.2285C180.885 35.317 181.436 36.6374 181.436 38.1937C181.436 39.7231 180.885 41.031 179.784 42.1175C178.687 43.204 177.356 43.7483 175.787 43.7483C174.246 43.7483 172.928 43.204 171.832 42.1175C170.735 41.031 170.189 39.7231 170.189 38.1937C170.189 36.6374 170.735 35.317 171.832 34.2285C172.928 33.1419 174.246 32.5977 175.787 32.5977Z" fill="#FEFEFE"/>
<mask id="mask0_1_57542" style="mask-type:luminance" maskUnits="userSpaceOnUse" x="0" y="9" width="41" height="42">
<path d="M0.233643 9.51978H40.684V50.8443H0.233643V9.51978Z" fill="white"/>
</mask>
<g mask="url(#mask0_1_57542)">
<path d="M40.7976 29.8654H34.8152C24.5753 27.6675 22.2975 25.3993 20.0822 15.2234V9.51978H19.3251V15.2834C17.1119 25.4097 14.8236 27.6717 4.60254 29.8654H0.23877V30.6166H4.60254C14.8236 32.8103 17.1119 35.0744 19.3251 45.1986V50.8567H20.0822V45.2586C22.2975 35.0827 24.5753 32.8165 34.8152 30.6166H40.7976V29.8654Z" fill="#260000"/>
</g>
<path d="M28.3025 48.1049H29.4956C29.746 48.1049 29.9754 48.1421 30.1882 48.2125C30.4051 48.2849 30.5887 48.3863 30.7389 48.5188C30.8932 48.6512 31.0142 48.8085 31.0976 48.9906C31.1811 49.1686 31.2228 49.3611 31.2228 49.5701C31.2228 49.7481 31.1936 49.9095 31.1394 50.0585C31.083 50.2075 31.0059 50.3441 30.9057 50.4641C30.8056 50.5862 30.6846 50.6918 30.547 50.7787C30.4072 50.8677 30.2549 50.9339 30.088 50.9774L31.5232 53.0883H30.8974L29.4956 51.0353H28.8281V53.0883H28.3025V48.1049ZM29.4956 50.5552C29.8565 50.5552 30.1465 50.4683 30.3634 50.2903C30.5845 50.1082 30.6971 49.866 30.6971 49.5618C30.6971 49.2638 30.5845 49.0299 30.3634 48.8582C30.1465 48.6823 29.8565 48.5933 29.4956 48.5933H28.8281V50.5552H29.4956Z" fill="#FEFEFE"/>
<path d="M34.7458 48.1049H37.3324V48.5933H35.2715V50.2655H36.8401V50.7456H35.2715V52.6082H37.3658V53.0883H34.7458V48.1049Z" fill="#FEFEFE"/>
<path d="M42.1968 47.9557H42.347L44.2577 53.0881H43.682L43.2064 51.7802H41.3041L40.8285 53.0881H40.2861L42.1968 47.9557ZM43.0396 51.3001L42.2553 49.1395L41.4793 51.3001H43.0396Z" fill="#FEFEFE"/>
<path d="M47.4045 48.1049H47.9302V52.6082H49.9494V53.0883H47.4045V48.1049Z" fill="#FEFEFE"/>
<path d="M57.106 48.1049H59.6925V48.5933H57.6316V50.2655H59.2002V50.7456H57.6316V52.6082H59.7259V53.0883H57.106V48.1049Z" fill="#FEFEFE"/>
<path d="M64.3007 53.1627C63.9607 53.1627 63.6458 53.0841 63.3579 52.9227C63.0742 52.7633 62.8364 52.5315 62.6487 52.2273L63.0492 51.8962C63.3996 52.426 63.8189 52.6909 64.3091 52.6909C64.6032 52.6909 64.8389 52.6122 65.0183 52.4508C65.2019 52.2914 65.2936 52.0783 65.2936 51.8134C65.2936 51.5878 65.2123 51.3953 65.0517 51.2339C64.889 51.0684 64.6282 50.9152 64.2674 50.7703C63.8105 50.5944 63.4789 50.3895 63.2745 50.1578C63.0742 49.926 62.9741 49.6507 62.9741 49.3299C62.9741 49.1375 63.0075 48.9616 63.0742 48.8001C63.141 48.6408 63.2327 48.5063 63.3496 48.3945C63.4705 48.2786 63.6166 48.1917 63.7834 48.1296C63.9503 48.0634 64.136 48.0303 64.3425 48.0303C64.914 48.0303 65.3896 48.2848 65.7692 48.7919L65.3604 49.1147C65.2102 48.9119 65.0517 48.7629 64.8848 48.6677C64.7179 48.5684 64.5344 48.5187 64.3341 48.5187C64.0775 48.5187 63.8752 48.589 63.725 48.7256C63.5748 48.8643 63.4997 49.0485 63.4997 49.2803C63.4997 49.5079 63.5748 49.6983 63.725 49.8515C63.8794 50.0067 64.136 50.1536 64.4926 50.2902C64.9474 50.4682 65.2811 50.6772 65.4939 50.9193C65.7108 51.1573 65.8193 51.4409 65.8193 51.772C65.8193 51.9769 65.7797 52.1652 65.7025 52.3349C65.6295 52.5067 65.5231 52.6557 65.3854 52.7819C65.2519 52.904 65.0934 52.9972 64.9098 53.0634C64.7263 53.1296 64.5218 53.1627 64.3007 53.1627Z" fill="#FEFEFE"/>
<path d="M70.3048 48.5933H68.6611V48.1049H72.4826V48.5933H70.8305V53.0883H70.3048V48.5933Z" fill="#FEFEFE"/>
<path d="M77.088 47.9557H77.2381L79.1489 53.0881H78.5731L78.0976 51.7802H76.1952L75.7196 53.0881H75.1772L77.088 47.9557ZM77.9307 51.3001L77.1464 49.1395L76.3704 51.3001H77.9307Z" fill="#FEFEFE"/>
<path d="M83.4877 48.5933H81.844V48.1049H85.6654V48.5933H84.0134V53.0883H83.4877V48.5933Z" fill="#FEFEFE"/>
<path d="M88.812 48.1049H91.3986V48.5933H89.3377V50.2655H90.9063V50.7456H89.3377V52.6082H91.4319V53.0883H88.812V48.1049Z" fill="#FEFEFE"/>
<path d="M100.162 47.9557H100.312L102.223 53.0881H101.647L101.172 51.7802H99.2692L98.7936 53.0881H98.2512L100.162 47.9557ZM101.005 51.3001L100.22 49.1395L99.4444 51.3001H101.005Z" fill="#FEFEFE"/>
<path d="M107.552 53.1628C107.206 53.1628 106.881 53.0966 106.576 52.9642C106.276 52.8317 106.013 52.6537 105.792 52.4261C105.569 52.1943 105.391 51.9273 105.258 51.6231C105.128 51.3147 105.066 50.9816 105.066 50.6215C105.066 50.2634 105.128 49.9261 105.258 49.6115C105.391 49.297 105.571 49.0238 105.8 48.792C106.028 48.5561 106.295 48.3698 106.601 48.2373C106.906 48.1008 107.231 48.0304 107.577 48.0304C107.949 48.0304 108.297 48.1111 108.62 48.2705C108.948 48.4257 109.229 48.6347 109.463 48.8996L109.063 49.239C108.866 49.0134 108.641 48.8417 108.387 48.7258C108.13 48.6057 107.857 48.5436 107.569 48.5436C107.29 48.5436 107.031 48.5974 106.793 48.7009C106.559 48.8065 106.353 48.9493 106.176 49.1314C106.003 49.3135 105.867 49.5329 105.767 49.7854C105.671 50.0337 105.625 50.3048 105.625 50.5966C105.625 50.8905 105.671 51.1637 105.767 51.4162C105.867 51.6645 106.003 51.8797 106.176 52.0619C106.353 52.244 106.562 52.3888 106.801 52.4923C107.039 52.5979 107.302 52.6496 107.586 52.6496C107.897 52.6496 108.18 52.5896 108.437 52.4675C108.698 52.3412 108.914 52.1736 109.088 51.9625V50.8946H107.577V50.4145H109.613V52.0619C109.367 52.4157 109.067 52.6889 108.712 52.8814C108.355 53.0697 107.97 53.1628 107.552 53.1628Z" fill="#FEFEFE"/>
<path d="M113.023 48.1049H115.61V48.5933H113.549V50.2655H115.117V50.7456H113.549V52.6082H115.643V53.0883H113.023V48.1049Z" fill="#FEFEFE"/>
<path d="M119.524 49.2142V53.0884H119.015V47.9559H119.165L122.553 51.9791V48.1049H123.062V53.2374H122.911L119.524 49.2142Z" fill="#FEFEFE"/>
<path d="M128.84 53.1627C128.483 53.1627 128.156 53.0965 127.856 52.964C127.555 52.8316 127.292 52.6557 127.071 52.4342C126.848 52.2087 126.673 51.9417 126.546 51.6313C126.416 51.3167 126.354 50.9835 126.354 50.6296C126.354 50.2612 126.416 49.9177 126.546 49.6031C126.679 49.2886 126.859 49.0154 127.088 48.7836C127.315 48.5518 127.582 48.3697 127.889 48.2372C128.194 48.1006 128.519 48.0303 128.865 48.0303C129.237 48.0303 129.585 48.111 129.908 48.2703C130.236 48.4256 130.517 48.6346 130.751 48.8995L130.35 49.2389C130.154 49.0133 129.929 48.8415 129.675 48.7256C129.424 48.6056 129.149 48.5435 128.849 48.5435C128.569 48.5435 128.31 48.5973 128.073 48.7008C127.839 48.8001 127.635 48.945 127.463 49.1313C127.29 49.3134 127.155 49.5286 127.055 49.777C126.959 50.0212 126.913 50.2902 126.913 50.5882C126.913 50.8862 126.959 51.1636 127.055 51.416C127.155 51.6706 127.29 51.8879 127.463 52.07C127.641 52.248 127.849 52.3887 128.089 52.4922C128.327 52.5977 128.592 52.6495 128.882 52.6495C129.193 52.6495 129.476 52.5895 129.733 52.4674C129.987 52.3411 130.202 52.1735 130.375 51.9624L130.751 52.2852C130.517 52.5563 130.236 52.7716 129.908 52.9309C129.585 53.0862 129.228 53.1627 128.84 53.1627Z" fill="#FEFEFE"/>
<path d="M135.021 51.1595L133.485 48.1049H134.078L135.321 50.5717L136.589 48.1049H137.132L135.546 51.1595V53.0883H135.021V51.1595Z" fill="#FEFEFE"/>
</g>
<defs>
<clipPath id="clip0_1_57542">
<rect width="183.429" height="60" fill="white" transform="translate(0.285645)"/>
</clipPath>
</defs>
</svg>
