<svg width="138" height="45" viewBox="0 0 138 45" fill="none" xmlns="http://www.w3.org/2000/svg">
<g clip-path="url(#clip0_1_57861)">
<path d="M6.22603 29.943C4.45112 28.0307 3.56445 25.6885 3.56445 22.9148C3.56445 20.138 4.45112 17.7865 6.22603 15.8619C7.99936 13.9372 10.2529 12.9749 12.9867 12.9749C15.4976 12.9749 17.566 13.754 19.1949 15.3093V13.5212H25.7296V32.265H19.264V30.1479H19.1949C17.566 31.9235 15.4976 32.8114 12.9867 32.8114C10.2529 32.8114 7.99936 31.8552 6.22603 29.943ZM11.7877 19.736C10.9371 20.5649 10.5134 21.6234 10.5134 22.9148C10.5134 24.2031 10.9183 25.2555 11.7312 26.075C12.5426 26.8914 13.6144 27.2981 14.9452 27.2981C16.2258 27.2981 17.2772 26.8852 18.1027 26.0564C18.9266 25.2244 19.3393 24.1752 19.3393 22.9086C19.3393 21.6219 18.914 20.5649 18.065 19.736C17.2144 18.9041 16.1755 18.4881 14.9452 18.4881C13.6897 18.4881 12.6367 18.9041 11.7877 19.736Z" fill="#260000"/>
<path d="M26.6895 32.265V13.5212H33.2304V16.222H33.3057C33.3512 16.1273 33.4281 16.0078 33.538 15.8619C33.651 15.7129 33.8911 15.4567 34.2599 15.092C34.6318 14.7288 35.0273 14.4013 35.4463 14.111C35.8637 13.8177 36.4067 13.5554 37.0721 13.3225C37.7375 13.0913 38.4123 12.9749 39.0997 12.9749C39.8153 12.9749 40.5183 13.0726 41.2088 13.2667C41.8993 13.4622 42.4031 13.6562 42.7217 13.8503L43.2427 14.1421L40.5058 19.6243C39.6929 18.9413 38.5614 18.5999 37.1098 18.5999C36.3188 18.5999 35.6409 18.7721 35.0759 19.1152C34.511 19.4551 34.1108 19.8695 33.877 20.3569C33.6416 20.8412 33.4752 21.2556 33.3748 21.5986C33.2775 21.9385 33.2304 22.2055 33.2304 22.3995V32.265H26.6895Z" fill="#260000"/>
<path d="M42.9057 29.9428C41.1308 28.0305 40.2441 25.6883 40.2441 22.9146C40.2441 20.1378 41.1308 17.7863 42.9057 15.8616C44.679 13.937 46.9326 12.9746 49.6664 12.9746C52.1773 12.9746 54.2456 13.7538 55.8746 15.3091V0.843018H62.4093V32.2648H55.9437V30.1477H55.8746C54.2456 31.9233 52.1773 32.8111 49.6664 32.8111C46.9326 32.8111 44.679 31.855 42.9057 29.9428ZM48.4674 19.7358C47.6168 20.5647 47.1931 21.6232 47.1931 22.9146C47.1931 24.2029 47.598 25.2553 48.4109 26.0748C49.2222 26.8912 50.2941 27.2979 51.6249 27.2979C52.9054 27.2979 53.9569 26.885 54.7824 26.0562C55.6062 25.2242 56.019 24.175 56.019 22.9084C56.019 21.6217 55.5937 20.5647 54.7447 19.7358C53.8941 18.9039 52.8552 18.4879 51.6249 18.4879C50.3694 18.4879 49.3164 18.9039 48.4674 19.7358Z" fill="#260000"/>
<path d="M64.6616 29.943C62.8867 28.0307 62 25.6885 62 22.9148C62 20.138 62.8867 17.7865 64.6616 15.8619C66.4349 13.9372 68.6885 12.9749 71.4222 12.9749C73.9331 12.9749 76.0015 13.754 77.6305 15.3093V13.5212H84.1651V32.265H77.6995V30.1479H77.6305C76.0015 31.9235 73.9331 32.8114 71.4222 32.8114C68.6885 32.8114 66.4349 31.8552 64.6616 29.943ZM70.2233 19.736C69.3727 20.5649 68.949 21.6234 68.949 22.9148C68.949 24.2031 69.3538 25.2555 70.1668 26.075C70.9781 26.8914 72.0499 27.2981 73.3807 27.2981C74.6613 27.2981 75.7127 26.8852 76.5382 26.0564C77.3621 25.2244 77.7748 24.1752 77.7748 22.9086C77.7748 21.6219 77.3496 20.5649 76.5005 19.736C75.65 18.9041 74.6111 18.4881 73.3807 18.4881C72.1253 18.4881 71.0723 18.9041 70.2233 19.736Z" fill="#260000"/>
<path d="M85.125 32.265V13.5212H91.6659V15.4955H91.7413C93.4393 13.8161 95.2503 12.9749 97.1711 12.9749C98.1033 12.9749 99.0323 13.0975 99.9582 13.3412C100.883 13.5817 101.769 13.9589 102.62 14.4711C103.469 14.9849 104.158 15.7113 104.685 16.6504C105.215 17.5863 105.482 18.6744 105.482 19.9161V32.265H98.9413V21.6669C98.9413 20.6953 98.6275 19.8447 97.9997 19.1152C97.372 18.3826 96.5528 18.0162 95.5453 18.0162C94.5566 18.0162 93.6637 18.395 92.8649 19.1524C92.0645 19.9068 91.6659 20.7449 91.6659 21.6669V32.265H85.125Z" fill="#260000"/>
<path d="M105.22 36.8718L110.575 34.2766C111.557 35.8815 113.269 36.6855 115.71 36.6855C116.843 36.6855 117.896 36.3254 118.867 35.6052C119.842 34.8881 120.33 33.7877 120.33 32.3023V30.9115C119.17 32.1781 117.1 32.8114 114.121 32.8114C111.388 32.8114 109.134 31.8552 107.361 29.943C105.586 28.0307 104.699 25.6885 104.699 22.9148C104.699 20.138 105.586 17.7865 107.361 15.8619C109.134 13.9372 111.388 12.9749 114.121 12.9749C116.56 12.9749 118.592 13.7183 120.217 15.2037H120.33V13.5212H126.864V32.7741C126.864 35.8194 125.841 38.1709 123.795 39.8271C121.751 41.4817 119.057 42.3105 115.71 42.3105C110.289 42.3105 106.793 40.4976 105.22 36.8718ZM112.922 19.736C112.072 20.5649 111.648 21.6234 111.648 22.9148C111.648 24.2031 112.053 25.2555 112.866 26.075C113.677 26.8915 114.749 27.2981 116.08 27.2981C117.361 27.2981 118.412 26.8852 119.237 26.0564C120.061 25.2244 120.474 24.1752 120.474 22.9086C120.474 21.6219 120.049 20.5649 119.2 19.736C118.349 18.9041 117.31 18.4881 116.08 18.4881C114.824 18.4881 113.771 18.9041 112.922 19.736Z" fill="#260000"/>
<path d="M132.036 24.4482C133.216 24.4482 134.218 24.8565 135.043 25.6713C135.872 26.4878 136.286 27.478 136.286 28.6453C136.286 29.7923 135.872 30.7733 135.043 31.5881C134.218 32.403 133.216 32.8112 132.036 32.8112C130.877 32.8112 129.885 32.403 129.061 31.5881C128.235 30.7733 127.824 29.7923 127.824 28.6453C127.824 27.478 128.235 26.4878 129.061 25.6713C129.885 24.8565 130.877 24.4482 132.036 24.4482Z" fill="#260000"/>
<mask id="mask0_1_57861" style="mask-type:luminance" maskUnits="userSpaceOnUse" x="-1" y="7" width="32" height="32">
<path d="M-0.0390625 7.13989H30.3933V38.1333H-0.0390625V7.13989Z" fill="white"/>
</mask>
<g mask="url(#mask0_1_57861)">
<path d="M30.4788 22.3991H25.9779C18.2741 20.7507 16.5604 19.0496 14.8938 11.4176V7.13989H14.3242V11.4626C12.6591 19.0573 10.9376 20.7538 3.24787 22.3991H-0.0351562V22.9625H3.24787C10.9376 24.6078 12.6591 26.3059 14.3242 33.899V38.1426H14.8938V33.944C16.5604 26.3121 18.2741 24.6125 25.9779 22.9625H30.4788V22.3991Z" fill="#F5F5F7"/>
</g>
<path d="M21.0781 36.0786H21.9758C22.1641 36.0786 22.3367 36.1066 22.4968 36.1593C22.66 36.2137 22.7981 36.2897 22.9111 36.389C23.0272 36.4884 23.1182 36.6063 23.181 36.7429C23.2438 36.8764 23.2752 37.0208 23.2752 37.1775C23.2752 37.311 23.2532 37.4321 23.2124 37.5438C23.17 37.6556 23.112 37.758 23.0366 37.8481C22.9613 37.9396 22.8703 38.0188 22.7667 38.084C22.6616 38.1507 22.547 38.2004 22.4215 38.233L23.5012 39.8162H23.0304L21.9758 38.2765H21.4736V39.8162H21.0781V36.0786ZM21.9758 37.9164C22.2473 37.9164 22.4654 37.8512 22.6286 37.7177C22.795 37.5811 22.8797 37.3995 22.8797 37.1713C22.8797 36.9478 22.795 36.7724 22.6286 36.6436C22.4654 36.5117 22.2473 36.4449 21.9758 36.4449H21.4736V37.9164H21.9758Z" fill="#260000"/>
<path d="M25.9255 36.0786H27.8715V36.4449H26.321V37.6991H27.5011V38.0592H26.321V39.4561H27.8966V39.8162H25.9255V36.0786Z" fill="#260000"/>
<path d="M31.5312 35.9668H31.6442L33.0817 39.8161H32.6486L32.2908 38.8352H30.8596L30.5018 39.8161H30.0938L31.5312 35.9668ZM32.1653 38.4751L31.5752 36.8546L30.9914 38.4751H32.1653Z" fill="#260000"/>
<path d="M35.4492 36.0786H35.8447V39.4561H37.3638V39.8162H35.4492V36.0786Z" fill="#260000"/>
<path d="M42.748 36.0786H44.694V36.4449H43.1435V37.6991H44.3236V38.0592H43.1435V39.4561H44.7191V39.8162H42.748V36.0786Z" fill="#260000"/>
<path d="M48.1609 39.872C47.9051 39.872 47.6681 39.8131 47.4515 39.692C47.2381 39.5725 47.0592 39.3986 46.918 39.1705L47.2193 38.9221C47.4829 39.3195 47.7984 39.5182 48.1672 39.5182C48.3884 39.5182 48.5658 39.4592 48.7007 39.3381C48.8388 39.2186 48.9079 39.0587 48.9079 38.86C48.9079 38.6909 48.8467 38.5465 48.7258 38.4254C48.6034 38.3013 48.4073 38.1864 48.1358 38.0778C47.7921 37.9458 47.5426 37.7922 47.3888 37.6183C47.2381 37.4445 47.1628 37.238 47.1628 36.9975C47.1628 36.8531 47.1879 36.7212 47.2381 36.6001C47.2883 36.4806 47.3574 36.3797 47.4453 36.2959C47.5363 36.209 47.6461 36.1438 47.7717 36.0972C47.8972 36.0475 48.0369 36.0227 48.1923 36.0227C48.6223 36.0227 48.9801 36.2136 49.2657 36.5939L48.9581 36.836C48.8451 36.6839 48.7258 36.5722 48.6003 36.5008C48.4747 36.4263 48.3366 36.389 48.186 36.389C47.993 36.389 47.8407 36.4418 47.7277 36.5442C47.6147 36.6482 47.5583 36.7864 47.5583 36.9602C47.5583 37.1309 47.6147 37.2737 47.7277 37.3886C47.8439 37.505 48.0369 37.6152 48.3053 37.7177C48.6474 37.8511 48.8985 38.0079 49.0585 38.1895C49.2217 38.368 49.3033 38.5807 49.3033 38.829C49.3033 38.9827 49.2735 39.1239 49.2155 39.2512C49.1605 39.38 49.0805 39.4918 48.9769 39.5864C48.8765 39.678 48.7572 39.7479 48.6191 39.7975C48.481 39.8472 48.3272 39.872 48.1609 39.872Z" fill="#260000"/>
<path d="M52.678 36.4449H51.4414V36.0786H54.3164V36.4449H53.0735V39.8162H52.678V36.4449Z" fill="#260000"/>
<path d="M57.7812 35.9668H57.8942L59.3317 39.8161H58.8986L58.5408 38.8352H57.1096L56.7518 39.8161H56.3438L57.7812 35.9668ZM58.4153 38.4751L57.8252 36.8546L57.2414 38.4751H58.4153Z" fill="#260000"/>
<path d="M62.596 36.4449H61.3594V36.0786H64.2344V36.4449H62.9915V39.8162H62.596V36.4449Z" fill="#260000"/>
<path d="M66.6016 36.0786H68.5475V36.4449H66.997V37.6991H68.1772V38.0592H66.997V39.4561H68.5726V39.8162H66.6016V36.0786Z" fill="#260000"/>
<path d="M75.1406 35.9668H75.2536L76.6911 39.8161H76.258L75.9002 38.8352H74.469L74.1111 39.8161H73.7031L75.1406 35.9668ZM75.7746 38.4751L75.1846 36.8546L74.6008 38.4751H75.7746Z" fill="#260000"/>
<path d="M80.7007 39.8723C80.4402 39.8723 80.1954 39.8226 79.9663 39.7233C79.7403 39.6239 79.5426 39.4905 79.3762 39.3197C79.2083 39.1459 79.0749 38.9457 78.9745 38.7175C78.8772 38.4862 78.8301 38.2363 78.8301 37.9662C78.8301 37.6977 78.8772 37.4447 78.9745 37.2088C79.0749 36.9729 79.2099 36.768 79.3825 36.5941C79.5535 36.4172 79.7544 36.2775 79.9851 36.1782C80.2142 36.0757 80.459 36.0229 80.7195 36.0229C80.9989 36.0229 81.261 36.0835 81.5042 36.203C81.7506 36.3194 81.9624 36.4762 82.1382 36.6749L81.8369 36.9294C81.6894 36.7602 81.5199 36.6314 81.3284 36.5445C81.1354 36.4544 80.9298 36.4079 80.7133 36.4079C80.503 36.4079 80.3084 36.4482 80.1295 36.5258C79.9537 36.605 79.7984 36.7121 79.665 36.8487C79.5347 36.9853 79.4327 37.1498 79.3574 37.3392C79.2852 37.5254 79.2507 37.7288 79.2507 37.9476C79.2507 38.168 79.2852 38.3729 79.3574 38.5623C79.4327 38.7485 79.5347 38.91 79.665 39.0465C79.7984 39.1831 79.9553 39.2918 80.1358 39.3694C80.3147 39.4485 80.5124 39.4874 80.7258 39.4874C80.9596 39.4874 81.1731 39.4423 81.3661 39.3508C81.5623 39.2561 81.7255 39.1304 81.8557 38.972V38.1711H80.7195V37.811H82.2512V39.0465C82.066 39.312 81.84 39.5168 81.5733 39.6612C81.3049 39.8024 81.0146 39.8723 80.7007 39.8723Z" fill="#260000"/>
<path d="M84.8164 36.0786H86.7624V36.4449H85.2119V37.6991H86.392V38.0592H85.2119V39.4561H86.7875V39.8162H84.8164V36.0786Z" fill="#260000"/>
<path d="M89.7071 36.9105V39.8161H89.3242V35.9668H89.4372L91.9858 38.9842V36.0786H92.3687V39.9279H92.2557L89.7071 36.9105Z" fill="#260000"/>
<path d="M96.7163 39.872C96.448 39.872 96.2016 39.8224 95.9756 39.723C95.7496 39.6237 95.5519 39.4918 95.3856 39.3257C95.2176 39.1565 95.0858 38.9563 94.9901 38.7235C94.8928 38.4875 94.8457 38.2376 94.8457 37.9722C94.8457 37.6959 94.8928 37.4383 94.9901 37.2023C95.0905 36.9664 95.2255 36.7615 95.3981 36.5877C95.5692 36.4138 95.77 36.2773 96.0007 36.1779C96.2298 36.0755 96.4747 36.0227 96.7352 36.0227C97.0145 36.0227 97.2766 36.0832 97.5198 36.2028C97.7662 36.3192 97.9781 36.4759 98.1538 36.6746L97.8525 36.9292C97.705 36.76 97.5355 36.6311 97.3441 36.5442C97.1557 36.4542 96.9486 36.4076 96.7226 36.4076C96.5123 36.4076 96.3177 36.448 96.1388 36.5256C95.9631 36.6001 95.8093 36.7088 95.6806 36.8485C95.5503 36.985 95.4483 37.1465 95.373 37.3327C95.3008 37.5159 95.2663 37.7177 95.2663 37.9412C95.2663 38.1647 95.3008 38.3727 95.373 38.562C95.4483 38.7529 95.5503 38.9159 95.6806 39.0525C95.814 39.186 95.9709 39.2915 96.1514 39.3691C96.3303 39.4483 96.5296 39.4871 96.7477 39.4871C96.9816 39.4871 97.195 39.4421 97.388 39.3505C97.5795 39.2558 97.7411 39.1301 97.8714 38.9718L98.1538 39.2139C97.9781 39.4173 97.7662 39.5787 97.5198 39.6982C97.2766 39.8146 97.0082 39.872 96.7163 39.872Z" fill="#260000"/>
<path d="M101.366 38.3696L100.211 36.0786H100.657L101.592 37.9288L102.546 36.0786H102.954L101.761 38.3696V39.8162H101.366V38.3696Z" fill="#260000"/>
</g>
<defs>
<clipPath id="clip0_1_57861">
<rect width="138" height="45" fill="white"/>
</clipPath>
</defs>
</svg>
