<svg width="192" height="55" viewBox="0 0 192 55" fill="none" xmlns="http://www.w3.org/2000/svg">
<path d="M12.6709 7.56545V9.60693H27.3109H41.9509V7.56545V5.52396H27.3109H12.6709V7.56545Z" fill="#FEFEFE"/>
<path d="M5.59082 27.3799V42.0305H7.54682H9.51482L9.58682 38.512C9.69482 34.0207 9.69482 26.2751 9.58682 18.6975L9.51482 12.7292H7.54682H5.59082V27.3799Z" fill="#FEFEFE"/>
<path d="M45.0708 27.3799V42.0305H47.1108H49.1508V27.3799V12.7292H47.1108H45.0708V27.3799Z" fill="#FEFEFE"/>
<path d="M167.591 17.2446C165.347 17.7249 163.463 18.9738 162.683 20.511C161.531 22.7686 162.107 25.7228 163.955 27.0797C165.143 27.9444 166.703 28.4487 170.111 29.0612C171.227 29.2533 172.439 29.5295 172.799 29.6616C174.803 30.4182 175.007 32.7959 173.159 33.8286C172.631 34.1169 171.467 34.345 170.471 34.345C168.347 34.333 166.211 33.3003 164.795 31.595L164.459 31.1867L163.295 32.3155C162.659 32.928 162.011 33.5404 161.855 33.6845L161.591 33.9367L162.203 34.6212C163.307 35.8701 165.131 36.9629 166.859 37.4073C168.059 37.7195 170.171 37.8396 171.755 37.7075C174.011 37.5033 175.571 36.8789 176.915 35.63C178.199 34.4291 178.835 32.7959 178.715 30.9826C178.643 29.6976 178.271 28.845 177.419 27.9324C176.171 26.5994 174.839 26.047 171.251 25.3985C168.539 24.8942 167.495 24.5939 166.979 24.1736C165.995 23.333 166.055 21.7599 167.099 21.0634C167.855 20.571 168.911 20.3789 170.531 20.4389C171.635 20.4869 172.103 20.559 172.535 20.7511C173.267 21.0754 174.143 21.88 174.575 22.6485L174.923 23.273L176.567 22.5404C177.467 22.1442 178.259 21.7839 178.319 21.7238C178.499 21.5677 177.719 20.1147 177.059 19.4062C176.051 18.3014 174.647 17.5808 172.775 17.2206C171.635 17.0044 168.635 17.0164 167.591 17.2446Z" fill="#FEFEFE"/>
<path d="M15.4309 27.3799V37.3472H17.4109H19.3909V27.3799V17.4127H17.4109H15.4309V27.3799Z" fill="#FEFEFE"/>
<path d="M25.3308 17.5568C25.2948 17.6408 25.2828 22.1201 25.2948 27.5L25.3308 37.2871H27.3708H29.4108V27.3799V17.4727L27.3948 17.4367C25.8588 17.4127 25.3668 17.4367 25.3308 17.5568Z" fill="#FEFEFE"/>
<path d="M35.3508 27.3799V37.3472H37.3308H39.3108V27.3799V17.4127H37.3308H35.3508V27.3799Z" fill="#FEFEFE"/>
<path d="M58.1509 27.3799V37.3471H60.0109H61.8709V30.6583C61.8709 26.9836 61.9069 24.0174 61.9549 24.0655C62.0029 24.1135 62.3389 25.0021 62.7229 26.0469C63.0949 27.0917 64.1989 30.0578 65.1829 32.6517L66.9709 37.3591L68.5909 37.3231L70.1989 37.2871L72.6349 30.8024C73.9669 27.2358 75.1189 24.2096 75.1909 24.0775C75.2629 23.9093 75.2989 25.9869 75.2749 30.5982L75.2509 37.3471H77.1469H79.0309V27.3799V17.4126H76.6429H74.2669L73.4149 19.5982C72.9469 20.8111 71.9029 23.6091 71.0749 25.8187C70.2469 28.0283 69.3469 30.4301 69.0589 31.1506L68.5549 32.4476L67.4989 29.4694C66.9109 27.8242 65.6629 24.4377 64.7389 21.9399L63.0349 17.4126H60.5989H58.1509V27.3799Z" fill="#FEFEFE"/>
<path d="M82.9789 17.4607C82.9549 17.4847 82.9309 21.964 82.9309 27.4039V37.2871H90.1909H97.4509L97.4869 35.5098L97.5229 33.7445H92.2909H87.0709V31.3428V28.941H91.8109H96.5509V27.1397V25.3384H91.8109H87.0709V23.1768V21.0153H92.1709H97.2709V19.214V17.4127H90.1549C86.2309 17.4127 83.0029 17.4367 82.9789 17.4607Z" fill="#FEFEFE"/>
<path d="M101.231 27.3679V37.3472L103.247 37.3232L105.251 37.2871L105.287 33.6004L105.311 29.9138L107.327 29.8777C109.151 29.8417 109.355 29.8657 109.535 30.0579C109.655 30.19 110.543 31.8712 111.515 33.8166L113.291 37.3472H115.547H117.815L115.703 33.2042C114.539 30.9345 113.591 29.0491 113.591 29.0251C113.591 29.0011 113.891 28.7729 114.251 28.5328C115.979 27.3439 116.711 25.8668 116.711 23.5972C116.711 20.4629 114.995 18.4694 111.671 17.7609C110.675 17.5568 109.919 17.5087 105.887 17.4487L101.231 17.3766V27.3679ZM110.783 21.1714C111.587 21.4356 111.947 21.7358 112.271 22.3843C112.787 23.4531 112.535 24.9782 111.719 25.6867C111.095 26.2391 110.627 26.3232 107.867 26.3832L105.311 26.4432V23.6572V20.8712L107.747 20.9192C109.547 20.9673 110.327 21.0273 110.783 21.1714Z" fill="#FEFEFE"/>
<path d="M127.115 17.5568C125.543 21.4836 119.351 37.167 119.351 37.2391C119.351 37.2991 120.287 37.3472 121.439 37.3472H123.527L123.839 36.5306C124.007 36.0863 124.379 35.0775 124.667 34.2849L125.207 32.8439L129.143 32.8199L133.091 32.7838L133.919 35.0655L134.747 37.3472H136.955C139.019 37.3472 139.175 37.3352 139.103 37.131C138.959 36.7587 133.391 22.7205 132.323 20.0546L131.291 17.4727L129.239 17.4367C127.655 17.4127 127.163 17.4487 127.115 17.5568ZM130.571 25.8788C131.183 27.524 131.711 28.9891 131.759 29.1212C131.831 29.3614 131.771 29.3614 129.191 29.3614C127.211 29.3614 126.551 29.3253 126.551 29.2173C126.551 29.0732 126.683 28.7009 128.219 24.4378C128.627 23.309 128.987 22.3122 129.023 22.2162C129.107 21.988 129.191 22.1681 130.571 25.8788Z" fill="#FEFEFE"/>
<path d="M148.415 17.6168C148.343 17.7369 147.395 20.1266 146.291 22.9367C145.187 25.7467 143.531 29.9258 142.619 32.2435C141.695 34.5491 140.867 36.6507 140.771 36.8908L140.591 37.3472H142.727H144.863L145.691 35.0655L146.531 32.7838L150.479 32.8079L154.427 32.8439L155.243 35.0655L156.047 37.2871L158.279 37.3232L160.511 37.3472L160.283 36.7828C160.151 36.4585 158.423 32.0994 156.443 27.0797C154.451 22.0601 152.771 17.833 152.711 17.6769C152.603 17.4127 152.555 17.4127 150.563 17.4127C148.739 17.4127 148.511 17.4367 148.415 17.6168ZM151.811 25.6507C152.543 27.6081 153.143 29.2413 153.167 29.2773C153.191 29.3614 147.887 29.3253 147.815 29.2533C147.803 29.2293 148.187 28.1365 148.667 26.8275C149.159 25.5066 149.735 23.9094 149.963 23.2729C150.191 22.6245 150.395 22.0961 150.431 22.0961C150.467 22.0961 151.091 23.6932 151.811 25.6507Z" fill="#FEFEFE"/>
<path d="M12.7549 45.2369C12.7069 45.273 12.6709 46.1976 12.6709 47.2784V49.2358H27.3109H41.9509V47.1944V45.1529H27.3949C19.3789 45.1529 12.7909 45.1889 12.7549 45.2369Z" fill="#FEFEFE"/>
</svg>
