<svg width="24" height="25" viewBox="0 0 24 25" fill="none" xmlns="http://www.w3.org/2000/svg">
<path d="M12 22.5C6.47715 22.5 2 18.0228 2 12.5C2 6.97715 6.47715 2.5 12 2.5C17.5228 2.5 22 6.97715 22 12.5C22 18.0228 17.5228 22.5 12 22.5Z" fill="#0052B5"/>
<path d="M21.3716 9C19.9528 5.20333 16.2927 2.5 12.0012 2.5C7.70966 2.5 4.04953 5.20333 2.6308 9L21.3716 9Z" fill="#FEFEFE"/>
<path d="M2.62842 16C4.04715 19.7967 7.70728 22.5 11.9988 22.5C16.2903 22.5 19.9505 19.7967 21.3692 16L2.62842 16Z" fill="#D90026"/>
</svg>
