<svg width="24" height="25" viewBox="0 0 24 25" fill="none" xmlns="http://www.w3.org/2000/svg">
<path d="M7.05291 16.7947C9.03304 19.1527 11.4167 21.0093 14.1373 22.323C15.1731 22.8121 16.5583 23.3923 18.1017 23.4917C18.1974 23.4959 18.2889 23.5 18.3846 23.5C19.4204 23.5 20.2524 23.1436 20.9304 22.4101C20.9346 22.4059 20.9429 22.3976 20.9471 22.3893C21.1883 22.0993 21.4629 21.8382 21.7499 21.5605C21.9455 21.374 22.1451 21.1792 22.3365 20.9803C23.2226 20.0603 23.2226 18.8916 22.3282 18.0006L19.828 15.5099C19.4037 15.0707 18.8962 14.8386 18.3638 14.8386C17.8313 14.8386 17.3196 15.0707 16.8828 15.5058L15.3936 16.9894C15.2563 16.9107 15.1149 16.8402 14.9817 16.7739C14.8153 16.691 14.6614 16.6123 14.5241 16.5253C13.168 15.6674 11.9367 14.5485 10.7594 13.1104C10.1645 12.3603 9.76518 11.7304 9.48647 11.0881C9.8775 10.7358 10.2436 10.367 10.5972 10.0064C10.722 9.87795 10.8509 9.74948 10.9799 9.62101C11.4292 9.17344 11.6704 8.65541 11.6704 8.12909C11.6704 7.60278 11.4333 7.08475 10.9799 6.63717L9.74022 5.4022C9.59463 5.25715 9.45735 5.11625 9.31591 4.9712C9.04136 4.68939 8.75432 4.3993 8.47145 4.13821C8.04297 3.71964 7.53962 3.5 7.00715 3.5C6.47884 3.5 5.97133 3.71964 5.52622 4.14235L3.9704 5.69229C3.40465 6.25591 3.08434 6.9397 3.01778 7.73125C2.93874 8.72172 3.12178 9.77435 3.59601 11.0466C4.324 13.0151 5.42222 14.8427 7.05291 16.7947ZM4.0328 7.81828C4.08272 7.26709 4.29488 6.80709 4.69423 6.40924L6.24172 4.86759C6.483 4.63552 6.74924 4.51533 7.00715 4.51533C7.26091 4.51533 7.51882 4.63552 7.75594 4.87588C8.03465 5.13282 8.29673 5.4022 8.5796 5.68815C8.72104 5.8332 8.86664 5.97824 9.01224 6.12743L10.2519 7.36241C10.5098 7.61935 10.6429 7.88044 10.6429 8.13738C10.6429 8.39432 10.5098 8.65541 10.2519 8.91235C10.1229 9.04082 9.99398 9.17344 9.86502 9.30191C9.47815 9.69146 9.11623 10.0603 8.71688 10.4126C8.70856 10.4208 8.7044 10.425 8.69608 10.4333C8.35081 10.7772 8.40489 11.1046 8.48809 11.3533C8.49225 11.3657 8.49641 11.374 8.50057 11.3864C8.82088 12.1531 9.26599 12.8825 9.9607 13.7528C11.2087 15.2862 12.5232 16.4755 13.9709 17.3914C14.1497 17.5075 14.3411 17.5986 14.52 17.6898C14.6864 17.7727 14.8403 17.8514 14.9776 17.9385C14.9942 17.9467 15.0067 17.955 15.0233 17.9633C15.1606 18.0338 15.2937 18.0669 15.4268 18.0669C15.7596 18.0669 15.976 17.8556 16.0467 17.7851L17.6025 16.2352C17.8438 15.9948 18.1058 15.8663 18.3638 15.8663C18.6799 15.8663 18.9378 16.0611 19.1001 16.2352L21.6085 18.73C22.1077 19.2273 22.1035 19.7661 21.596 20.2924C21.4213 20.4789 21.2383 20.6571 21.0427 20.8436C20.7516 21.1254 20.4479 21.4155 20.1733 21.7429C19.6949 22.2567 19.125 22.4971 18.3887 22.4971C18.318 22.4971 18.2431 22.493 18.1724 22.4888C16.8079 22.4018 15.5392 21.8713 14.5865 21.4196C11.9991 20.1722 9.72774 18.4026 7.8433 16.1564C6.29164 14.2957 5.2475 12.5634 4.55695 10.7068C4.12848 9.56714 3.96624 8.65126 4.0328 7.81828Z" fill="#FEFEFE"/>
</svg>
