<svg width="24" height="25" viewBox="0 0 24 25" fill="none" xmlns="http://www.w3.org/2000/svg">
<path d="M17.0546 14.3469C16.9358 14.28 16.8011 14.2043 16.6388 14.1066C16.5483 14.0519 16.4344 13.9771 16.3138 13.898C15.6944 13.4915 15.2252 13.2038 14.8257 13.2038C14.7321 13.2038 14.6436 13.2196 14.563 13.2507C14.213 13.3855 13.9256 13.7455 13.6477 14.0937C13.5458 14.2212 13.4 14.4038 13.3116 14.4855C12.9607 14.4217 12.2206 13.9632 11.4219 13.1645C10.6223 12.3649 10.1638 11.624 10.1008 11.2739C10.1823 11.1851 10.3663 11.0383 10.4947 10.9358C10.8415 10.6589 11.2002 10.3725 11.3357 10.0237C11.5085 9.57539 11.1917 9.03928 10.6885 8.27269C10.6093 8.15203 10.5345 8.03808 10.4803 7.94822C10.3822 7.78533 10.3065 7.65056 10.2396 7.53178C9.96528 7.04419 9.78402 6.72192 9.10287 6.72192C8.6608 6.72192 8.03577 7.13967 7.61239 7.55396C6.99711 8.15616 6.6582 8.85141 6.6582 9.513C6.65938 11.3099 7.66222 13.3694 9.40963 15.1655C9.41263 15.1685 9.41563 15.1693 9.41872 15.1723C11.2148 16.9197 13.2754 17.9191 15.0723 17.9191H15.073C15.7337 17.9191 16.4292 17.5841 17.0313 16.9692C17.4459 16.5458 17.8642 15.9254 17.8642 15.4836C17.8643 14.8025 17.5422 14.6213 17.0546 14.3469ZM15.0725 16.9908C13.5419 16.9897 11.6748 16.0621 10.0771 14.5095C8.5243 12.9116 7.59673 11.0444 7.59575 9.51394C7.59575 8.58821 8.79706 7.70803 9.11122 7.6598C9.17539 7.66008 9.20905 7.66388 9.22508 7.6666C9.26661 7.71441 9.34916 7.86113 9.42266 7.99177C9.48917 8.10999 9.572 8.25717 9.67747 8.43244C9.74122 8.53805 9.82072 8.65913 9.90486 8.78728C10.0641 9.02991 10.3842 9.5176 10.4382 9.72577C10.3479 9.8535 10.0679 10.077 9.90988 10.2032C9.5053 10.5262 9.15589 10.8051 9.15589 11.1993C9.15688 12.1514 10.3833 13.4517 10.7591 13.8276C11.135 14.2034 12.4353 15.4298 13.3894 15.4307C13.781 15.4295 14.0588 15.0815 14.3804 14.6786C14.5073 14.5198 14.7321 14.2381 14.8604 14.1483C15.0683 14.2019 15.5566 14.5224 15.7994 14.6818C15.9276 14.7659 16.0486 14.8454 16.1549 14.9095C16.3295 15.0146 16.4767 15.0975 16.595 15.164C16.7255 15.2375 16.8723 15.3201 16.9201 15.3616C16.9228 15.3776 16.9266 15.4112 16.9269 15.4754C16.8783 15.7892 15.9979 16.9897 15.0725 16.9908Z" fill="#00A854"/>
<path d="M21.5812 12.5448C21.5483 10.0116 20.5315 7.61791 18.7182 5.80455C16.8714 3.95777 14.4336 2.94067 11.8539 2.94067C9.36369 2.94067 7.0341 3.89889 5.29419 5.63875C3.75022 7.18272 2.80297 9.24194 2.62677 11.4371C2.45966 13.5199 2.98986 15.6276 4.12204 17.3997L2.576 21.5787C2.51113 21.7541 2.55669 21.9513 2.69202 22.0805C2.78094 22.1654 2.89743 22.2101 3.01574 22.2101C3.07743 22.2101 3.13968 22.1923 3.19869 22.1672L7.22521 20.4537C8.76233 21.4105 10.52 21.9035 12.3247 21.9035H12.3249C14.8147 21.9035 17.1443 20.9568 18.884 19.2171C20.6562 17.4448 21.6141 15.0825 21.5812 12.5448ZM18.221 18.5656C16.6582 20.1283 14.5642 20.9889 12.3247 20.9888C10.6197 20.9888 8.96089 20.4897 7.52755 19.5456C7.44983 19.4944 7.36002 19.4683 7.26969 19.4683C7.20768 19.4683 7.14543 19.4806 7.08669 19.5055L3.83188 20.886L5.08344 17.503C5.1358 17.3614 5.11677 17.2032 5.03235 17.0781C2.73191 13.6701 3.12083 9.13792 5.9571 6.30171C7.51991 4.73889 9.6141 3.87817 11.8539 3.87817C14.1832 3.87817 16.3855 4.79772 18.0552 6.46745C19.6948 8.10696 20.614 10.2696 20.6437 12.557C20.6734 14.8397 19.813 16.9736 18.221 18.5656Z" fill="#00A854"/>
</svg>
