<svg width="32" height="32" viewBox="0 0 32 32" fill="none" xmlns="http://www.w3.org/2000/svg">
<path d="M25.8994 6.10047C23.2551 3.45622 19.7394 2 15.9999 2C15.9997 2 16 2 15.9998 2C12.2606 2 8.74461 3.45638 6.10047 6.10047C3.45627 8.74472 2 12.2604 2 16C2.00011 18.3805 2.60594 20.7202 3.75503 22.7896L2.0303 28.9587C1.95056 29.2441 2.03084 29.5502 2.2403 29.7596C2.44975 29.9691 2.75578 30.0493 3.04125 29.9696L9.2106 28.2449C11.2798 29.3941 13.6193 29.9999 15.9999 30C19.7395 30 23.2552 28.5437 25.8995 25.8995C28.5438 23.2552 30 19.7395 30 15.9999C29.9999 12.2604 28.5436 8.74472 25.8994 6.10047ZM15.9999 28.3594C13.7935 28.3593 11.6277 27.7702 9.73648 26.6558C9.60911 26.5807 9.46517 26.5422 9.32003 26.5422C9.24598 26.5422 9.17172 26.5522 9.09915 26.5725L4.0026 27.9973L5.42743 22.901C5.48753 22.686 5.45745 22.456 5.3442 22.2637C4.22977 20.3722 3.64073 18.2063 3.64062 15.9999C3.64062 12.6986 4.92622 9.59495 7.26061 7.26055C9.595 4.92616 12.6987 3.64062 15.9999 3.64062C22.8147 3.64062 28.3592 9.18501 28.3594 15.9999C28.3594 22.8149 22.8149 28.3594 15.9999 28.3594Z" fill="#FEFEFE"/>
<path d="M22.0429 17.0492C21.5415 16.5477 20.8728 16.2715 20.1601 16.2715C19.4475 16.2715 18.7788 16.5477 18.2775 17.0491L17.8972 17.4294C17.8034 17.5231 17.6774 17.5748 17.5424 17.5748C17.4072 17.5748 17.2812 17.5231 17.1872 17.4291L14.5692 14.8111C14.4754 14.7174 14.4237 14.5913 14.4237 14.4562C14.4237 14.321 14.4753 14.195 14.5689 14.1013L14.9493 13.721C15.9875 12.6829 15.9875 10.9937 14.9494 9.95554L14.1886 9.19456C13.6871 8.69324 13.0185 8.41724 12.3059 8.41724C11.5932 8.41724 10.9246 8.6933 10.4231 9.19478L9.85592 9.76211C8.65668 10.9614 8.22136 12.7472 8.63004 14.7909C9.01466 16.7139 10.114 18.6607 11.7257 20.2726C13.7568 22.3034 16.3435 23.5159 18.6453 23.5161H18.6458C20.0962 23.5161 21.3378 23.0412 22.2363 22.1427L22.8036 21.5754C23.8417 20.5373 23.8417 18.848 22.8036 17.8098L22.0429 17.0492ZM21.6435 20.4153L21.0763 20.9826C20.4921 21.5667 19.6518 21.8754 18.6458 21.8754H18.6456C16.7691 21.8753 14.616 20.8425 12.8859 19.1125C11.5007 17.7272 10.5606 16.0781 10.2389 14.4692C9.94123 12.9807 10.2172 11.7211 11.0161 10.9222L11.5833 10.3549C11.7748 10.1634 12.0314 10.0579 12.3059 10.0579C12.5805 10.0579 12.8372 10.1634 13.0287 10.3548L13.7893 11.1156C14.1878 11.5141 14.1878 12.1625 13.7894 12.5609L13.409 12.9413C13.0053 13.3449 12.7831 13.883 12.7831 14.4564C12.7832 15.0298 13.0055 15.5678 13.4091 15.9714L16.0272 18.5893C16.4309 18.9931 16.969 19.2155 17.5424 19.2155C18.1157 19.2155 18.6537 18.9932 19.0573 18.5896L19.4377 18.2093C19.6292 18.0177 19.8858 17.9122 20.1602 17.9122C20.4347 17.9122 20.6913 18.0177 20.8829 18.2094L21.6435 18.97C22.042 19.3684 22.042 20.0168 21.6435 20.4153Z" fill="#FEFEFE"/>
</svg>
